<svg xmlns="http://www.w3.org/2000/svg" viewBox="0 0 800 450">
<defs>
  <radialGradient id="a1" cx="68%" cy="20%" r="65%">
    <stop offset="0%" stop-color="#854d0e" stop-opacity="0.45"/>
    <stop offset="100%" stop-color="#020509" stop-opacity="0"/>
  </radialGradient>
  <radialGradient id="a2" cx="20%" cy="75%" r="38%">
    <stop offset="0%" stop-color="#431407" stop-opacity="0.28"/>
    <stop offset="100%" stop-color="#020509" stop-opacity="0"/>
  </radialGradient>
  <linearGradient id="sp" x1="0" y1="0" x2="0" y2="1">
    <stop offset="0%" stop-color="rgba(251,191,36,0)"/>
    <stop offset="28%" stop-color="rgba(251,191,36,0.9)"/>
    <stop offset="72%" stop-color="rgba(251,191,36,0.9)"/>
    <stop offset="100%" stop-color="rgba(251,191,36,0)"/>
  </linearGradient>
  <linearGradient id="fl" x1="0" y1="0" x2="0" y2="1">
    <stop offset="0%" stop-color="#854d0e" stop-opacity="0.07"/>
    <stop offset="100%" stop-color="#020509" stop-opacity="0"/>
  </linearGradient>
  <filter id="g4"><feGaussianBlur stdDeviation="4" result="b"/><feMerge><feMergeNode in="b"/><feMergeNode in="SourceGraphic"/></feMerge></filter>
  <filter id="g10"><feGaussianBlur stdDeviation="10" result="b"/><feMerge><feMergeNode in="b"/><feMergeNode in="SourceGraphic"/></feMerge></filter>
  <filter id="g20"><feGaussianBlur stdDeviation="20" result="b"/><feMerge><feMergeNode in="b"/><feMergeNode in="SourceGraphic"/></feMerge></filter>
</defs>
<rect width="800" height="450" fill="#06080a"/>
<rect width="800" height="450" fill="url(#a1)"/>
<rect width="800" height="450" fill="url(#a2)"/>
<rect x="0" y="355" width="800" height="95" fill="url(#fl)"/>
<!-- Spine -->
<rect x="399" y="0" width="2" height="450" fill="url(#sp)" filter="url(#g20)" opacity="0.75"/>
<!-- Trading monitor icon -->
<g filter="url(#g10)" opacity="0.55">
  <!-- Monitor body -->
  <rect x="60" y="155" width="215" height="155" rx="9" fill="none" stroke="#fbbf24" stroke-width="1.6"/>
  <!-- Screen bezel -->
  <rect x="72" y="166" width="191" height="133" rx="5" fill="none" stroke="#fbbf24" stroke-width="1" opacity="0.5"/>
  <!-- Candlesticks inside screen -->
  <!-- Bearish -->
  <line x1="90" y1="185" x2="90" y2="272" stroke="#ef4444" stroke-width="1" opacity="0.6"/>
  <rect x="84" y="202" width="12" height="40" rx="1" fill="#ef4444" opacity="0.55"/>
  <!-- Bullish -->
  <line x1="114" y1="195" x2="114" y2="278" stroke="#34d399" stroke-width="1" opacity="0.6"/>
  <rect x="108" y="215" width="12" height="45" rx="1" fill="#34d399" opacity="0.55"/>
  <!-- Bearish -->
  <line x1="138" y1="182" x2="138" y2="265" stroke="#ef4444" stroke-width="1" opacity="0.6"/>
  <rect x="132" y="196" width="12" height="42" rx="1" fill="#ef4444" opacity="0.55"/>
  <!-- Bullish -->
  <line x1="162" y1="175" x2="162" y2="258" stroke="#34d399" stroke-width="1" opacity="0.6"/>
  <rect x="156" y="188" width="12" height="48" rx="1" fill="#34d399" opacity="0.55"/>
  <!-- Bullish -->
  <line x1="186" y1="168" x2="186" y2="248" stroke="#34d399" stroke-width="1" opacity="0.6"/>
  <rect x="180" y="178" width="12" height="44" rx="1" fill="#34d399" opacity="0.55"/>
  <!-- Bullish -->
  <line x1="210" y1="160" x2="210" y2="240" stroke="#34d399" stroke-width="1" opacity="0.6"/>
  <rect x="204" y="170" width="12" height="44" rx="1" fill="#34d399" opacity="0.55"/>
  <!-- Gold trend line across screen -->
  <polyline points="90,228 114,235 138,212 162,202 186,190 210,182 240,172" fill="none" stroke="#fbbf24" stroke-width="2" opacity="0.85"/>
  <!-- Monitor stand -->
  <line x1="167" y1="310" x2="167" y2="340" stroke="#fbbf24" stroke-width="1.5"/>
  <line x1="132" y1="340" x2="202" y2="340" stroke="#fbbf24" stroke-width="1.5"/>
</g>
<!-- 4 data source nodes (API sources) -->
<g filter="url(#g10)">
  <circle cx="458" cy="58" r="15" fill="#fbbf24" opacity="0.85"/>
  <circle cx="458" cy="58" r="7" fill="#fef3c7"/>
  <circle cx="548" cy="58" r="15" fill="#fbbf24" opacity="0.85"/>
  <circle cx="548" cy="58" r="7" fill="#fef3c7"/>
  <circle cx="638" cy="58" r="15" fill="#fbbf24" opacity="0.85"/>
  <circle cx="638" cy="58" r="7" fill="#fef3c7"/>
  <circle cx="728" cy="58" r="15" fill="#fbbf24" opacity="0.85"/>
  <circle cx="728" cy="58" r="7" fill="#fef3c7"/>
</g>
<!-- Feature engineering central node -->
<g filter="url(#g10)">
  <circle cx="593" cy="185" r="28" fill="#fbbf24"/>
  <circle cx="593" cy="185" r="14" fill="#fef3c7"/>
</g>
<!-- Connections: sources → feature engine -->
<g filter="url(#g4)" stroke="#fbbf24" stroke-width="1.4" fill="none" opacity="0.38">
  <line x1="458" y1="73" x2="572" y2="162"/>
  <line x1="548" y1="73" x2="580" y2="158"/>
  <line x1="638" y1="73" x2="605" y2="162"/>
  <line x1="728" y1="73" x2="614" y2="164"/>
</g>
<!-- Model nodes arranged below feature engine -->
<g filter="url(#g10)">
  <!-- OLS -->
  <circle cx="480" cy="295" r="14" fill="#fbbf24" opacity="0.78"/>
  <circle cx="480" cy="295" r="7" fill="#fef3c7"/>
  <!-- Ridge/Lasso -->
  <circle cx="540" cy="330" r="14" fill="#fbbf24" opacity="0.78"/>
  <circle cx="540" cy="330" r="7" fill="#fef3c7"/>
  <!-- RF/GB -->
  <circle cx="600" cy="350" r="16" fill="#fbbf24" opacity="0.82"/>
  <circle cx="600" cy="350" r="8" fill="#fef3c7"/>
  <!-- GARCH -->
  <circle cx="660" cy="330" r="14" fill="#fbbf24" opacity="0.78"/>
  <circle cx="660" cy="330" r="7" fill="#fef3c7"/>
  <!-- Walk-forward backtesting -->
  <circle cx="718" cy="290" r="14" fill="#fbbf24" opacity="0.78"/>
  <circle cx="718" cy="290" r="7" fill="#fef3c7"/>
</g>
<!-- Feature engine → models -->
<g filter="url(#g4)" stroke="#fbbf24" stroke-width="1.3" fill="none" opacity="0.36">
  <line x1="573" y1="205" x2="487" y2="282"/>
  <line x1="580" y1="208" x2="543" y2="316"/>
  <line x1="593" y1="213" x2="598" y2="334"/>
  <line x1="606" y1="208" x2="655" y2="316"/>
  <line x1="613" y1="205" x2="713" y2="276"/>
</g>
<!-- Trend line across network -->
<polyline points="458,58 548,58 593,185 480,295 600,350 718,290" fill="none" stroke="#fbbf24" stroke-width="1.5" stroke-dasharray="8,5" filter="url(#g4)" opacity="0.45"/>
<!-- Red accent nodes -->
<g filter="url(#g20)">
  <circle cx="398" cy="145" r="12" fill="#ef4444"/>
  <circle cx="398" cy="145" r="6" fill="#fca5a5"/>
  <circle cx="325" cy="310" r="10" fill="#ef4444" opacity="0.9"/>
  <circle cx="325" cy="310" r="5" fill="#fca5a5"/>
  <circle cx="762" cy="192" r="10" fill="#ef4444" opacity="0.85"/>
  <circle cx="762" cy="192" r="5" fill="#fca5a5"/>
</g>
<!-- Particles -->
<g fill="#fbbf24" opacity="0.35" filter="url(#g4)">
  <circle cx="295" cy="92" r="2.5"/>
  <circle cx="355" cy="165" r="2"/>
  <circle cx="772" cy="420" r="2.5"/>
  <circle cx="262" cy="418" r="2"/>
  <circle cx="638" cy="432" r="1.8"/>
  <circle cx="310" cy="72" r="2"/>
</g>
<text x="400" y="436" font-family="system-ui,sans-serif" font-size="10" font-weight="600" fill="rgba(255,255,255,0.18)" text-anchor="middle" letter-spacing="2.5">YFINANCE · FRED · PYTRENDS · NEWSAPI · GARCH · WALK-FORWARD BACKTESTING</text>
</svg>
