<svg xmlns="http://www.w3.org/2000/svg" viewBox="0 0 800 450">
<defs>
  <radialGradient id="a1" cx="72%" cy="18%" r="65%">
    <stop offset="0%" stop-color="#0369a1" stop-opacity="0.45"/>
    <stop offset="100%" stop-color="#020509" stop-opacity="0"/>
  </radialGradient>
  <radialGradient id="a2" cx="18%" cy="78%" r="40%">
    <stop offset="0%" stop-color="#075985" stop-opacity="0.22"/>
    <stop offset="100%" stop-color="#020509" stop-opacity="0"/>
  </radialGradient>
  <linearGradient id="sp" x1="0" y1="0" x2="0" y2="1">
    <stop offset="0%" stop-color="rgba(251,191,36,0)"/>
    <stop offset="28%" stop-color="rgba(251,191,36,0.9)"/>
    <stop offset="72%" stop-color="rgba(251,191,36,0.9)"/>
    <stop offset="100%" stop-color="rgba(251,191,36,0)"/>
  </linearGradient>
  <linearGradient id="fl" x1="0" y1="0" x2="0" y2="1">
    <stop offset="0%" stop-color="#0369a1" stop-opacity="0.07"/>
    <stop offset="100%" stop-color="#020509" stop-opacity="0"/>
  </linearGradient>
  <filter id="g4"><feGaussianBlur stdDeviation="4" result="b"/><feMerge><feMergeNode in="b"/><feMergeNode in="SourceGraphic"/></feMerge></filter>
  <filter id="g10"><feGaussianBlur stdDeviation="10" result="b"/><feMerge><feMergeNode in="b"/><feMergeNode in="SourceGraphic"/></feMerge></filter>
  <filter id="g20"><feGaussianBlur stdDeviation="20" result="b"/><feMerge><feMergeNode in="b"/><feMergeNode in="SourceGraphic"/></feMerge></filter>
</defs>
<rect width="800" height="450" fill="#060a12"/>
<rect width="800" height="450" fill="url(#a1)"/>
<rect width="800" height="450" fill="url(#a2)"/>
<rect x="0" y="355" width="800" height="95" fill="url(#fl)"/>
<!-- Spine -->
<rect x="399" y="0" width="2" height="450" fill="url(#sp)" filter="url(#g20)" opacity="0.75"/>
<!-- Azure cloud icon -->
<g filter="url(#g10)" opacity="0.52">
  <circle cx="155" cy="185" r="62" fill="none" stroke="#38bdf8" stroke-width="1.5"/>
  <ellipse cx="208" cy="160" rx="44" ry="37" fill="none" stroke="#38bdf8" stroke-width="1.5"/>
  <circle cx="122" cy="205" r="30" fill="none" stroke="#38bdf8" stroke-width="1.5"/>
</g>
<!-- Database cylinder -->
<g filter="url(#g4)" opacity="0.5">
  <ellipse cx="160" cy="295" rx="46" ry="13" fill="none" stroke="#38bdf8" stroke-width="1.2"/>
  <line x1="114" y1="295" x2="114" y2="348" stroke="#38bdf8" stroke-width="1.2"/>
  <line x1="206" y1="295" x2="206" y2="348" stroke="#38bdf8" stroke-width="1.2"/>
  <ellipse cx="160" cy="348" rx="46" ry="13" fill="none" stroke="#38bdf8" stroke-width="1.2"/>
</g>
<!-- Bronze tier -->
<g filter="url(#g10)">
  <circle cx="498" cy="95" r="19" fill="#c87941"/>
  <circle cx="498" cy="95" r="9" fill="#f5d6a8"/>
  <circle cx="592" cy="72" r="12" fill="#c87941" opacity="0.8"/>
  <circle cx="418" cy="70" r="9" fill="#c87941" opacity="0.75"/>
  <circle cx="660" cy="108" r="8" fill="#c87941" opacity="0.65"/>
</g>
<g filter="url(#g4)" stroke="#c87941" stroke-width="1" fill="none" opacity="0.45">
  <line x1="498" y1="95" x2="592" y2="72"/>
  <line x1="498" y1="95" x2="418" y2="70"/>
  <line x1="498" y1="95" x2="660" y2="108"/>
  <line x1="498" y1="114" x2="498" y2="205"/>
</g>
<!-- Silver tier -->
<g filter="url(#g10)">
  <circle cx="498" cy="225" r="21" fill="#94a3b8"/>
  <circle cx="498" cy="225" r="10" fill="#e2e8f0"/>
  <circle cx="618" cy="204" r="13" fill="#94a3b8" opacity="0.8"/>
  <circle cx="675" cy="255" r="10" fill="#94a3b8" opacity="0.7"/>
  <circle cx="396" cy="200" r="10" fill="#94a3b8" opacity="0.7"/>
  <circle cx="730" cy="218" r="7" fill="#94a3b8" opacity="0.55"/>
</g>
<g filter="url(#g4)" stroke="#94a3b8" stroke-width="1" fill="none" opacity="0.42">
  <line x1="498" y1="225" x2="618" y2="204"/>
  <line x1="498" y1="225" x2="675" y2="255"/>
  <line x1="498" y1="225" x2="396" y2="200"/>
  <line x1="618" y1="204" x2="730" y2="218"/>
  <line x1="498" y1="246" x2="498" y2="330"/>
</g>
<!-- Gold tier -->
<g filter="url(#g10)">
  <circle cx="498" cy="355" r="25" fill="#fbbf24"/>
  <circle cx="498" cy="355" r="12" fill="#fef3c7"/>
  <circle cx="614" cy="332" r="15" fill="#fbbf24" opacity="0.8"/>
  <circle cx="685" cy="375" r="11" fill="#fbbf24" opacity="0.7"/>
  <circle cx="396" cy="332" r="11" fill="#fbbf24" opacity="0.7"/>
  <circle cx="735" cy="340" r="8" fill="#fbbf24" opacity="0.55"/>
</g>
<g filter="url(#g4)" stroke="#fbbf24" stroke-width="1.5" fill="none" opacity="0.42">
  <line x1="498" y1="355" x2="614" y2="332"/>
  <line x1="498" y1="355" x2="685" y2="375"/>
  <line x1="498" y1="355" x2="396" y2="332"/>
  <line x1="614" y1="332" x2="735" y2="340"/>
</g>
<!-- Red accent nodes -->
<g filter="url(#g20)">
  <circle cx="398" cy="153" r="13" fill="#ef4444"/>
  <circle cx="398" cy="153" r="6" fill="#fca5a5"/>
  <circle cx="728" cy="175" r="10" fill="#ef4444" opacity="0.9"/>
  <circle cx="728" cy="175" r="5" fill="#fca5a5"/>
  <circle cx="330" cy="300" r="9" fill="#ef4444" opacity="0.8"/>
  <circle cx="330" cy="300" r="4.5" fill="#fca5a5"/>
</g>
<!-- Vertical tier connectors -->
<g filter="url(#g4)" stroke="#fbbf24" stroke-width="1.5" fill="none" opacity="0.35" stroke-dasharray="5,4">
  <line x1="498" y1="114" x2="498" y2="204"/>
  <line x1="498" y1="246" x2="498" y2="330"/>
</g>
<!-- Particles -->
<g fill="#fbbf24" opacity="0.38" filter="url(#g4)">
  <circle cx="288" cy="95" r="2.5"/>
  <circle cx="348" cy="168" r="2"/>
  <circle cx="748" cy="140" r="2"/>
  <circle cx="762" cy="418" r="2.5"/>
  <circle cx="242" cy="378" r="2"/>
  <circle cx="635" cy="405" r="1.8"/>
  <circle cx="318" cy="62" r="1.5"/>
</g>
<text x="400" y="436" font-family="system-ui,sans-serif" font-size="10" font-weight="600" fill="rgba(255,255,255,0.18)" text-anchor="middle" letter-spacing="2.5">AZURE DATA FACTORY · SNOWFLAKE · MEDALLION ARCHITECTURE</text>
</svg>
